<svg width="617" height="189" viewBox="0 0 617 189" fill="none" xmlns="http://www.w3.org/2000/svg">
<path d="M63.2885 7.764V65H51.8085V27.772L36.4745 65H27.7825L12.3665 27.772V65H0.886516V7.764H13.9245L32.1285 50.322L50.3325 7.764H63.2885ZM80.4605 14.16C78.4378 14.16 76.7431 13.5313 75.3765 12.274C74.0645 10.962 73.4085 9.34933 73.4085 7.436C73.4085 5.52266 74.0645 3.93733 75.3765 2.68C76.7431 1.368 78.4378 0.711997 80.4605 0.711997C82.4831 0.711997 84.1505 1.368 85.4625 2.68C86.8291 3.93733 87.5125 5.52266 87.5125 7.436C87.5125 9.34933 86.8291 10.962 85.4625 12.274C84.1505 13.5313 82.4831 14.16 80.4605 14.16ZM86.1185 19.572V65H74.6385V19.572H86.1185ZM122.635 18.916C128.047 18.916 132.42 20.638 135.755 24.082C139.089 27.4713 140.757 32.2273 140.757 38.35V65H129.277V39.908C129.277 36.3 128.375 33.5393 126.571 31.626C124.767 29.658 122.307 28.674 119.191 28.674C116.02 28.674 113.505 29.658 111.647 31.626C109.843 33.5393 108.941 36.3 108.941 39.908V65H97.4607V19.572H108.941V25.23C110.471 23.262 112.412 21.7313 114.763 20.638C117.168 19.49 119.792 18.916 122.635 18.916ZM177.258 18.916C180.702 18.916 183.763 19.6813 186.442 21.212C189.12 22.688 191.198 24.902 192.674 27.854C194.204 30.7513 194.97 34.25 194.97 38.35V65H183.49V39.908C183.49 36.3 182.588 33.5393 180.784 31.626C178.98 29.658 176.52 28.674 173.404 28.674C170.233 28.674 167.718 29.658 165.86 31.626C164.056 33.5393 163.154 36.3 163.154 39.908V65H151.674V4.32H163.154V25.23C164.63 23.262 166.598 21.7313 169.058 20.638C171.518 19.49 174.251 18.916 177.258 18.916ZM202.935 42.122C202.935 37.53 203.837 33.4573 205.641 29.904C207.499 26.3507 209.987 23.6173 213.103 21.704C216.273 19.7907 219.799 18.834 223.681 18.834C227.07 18.834 230.022 19.5173 232.537 20.884C235.106 22.2507 237.156 23.9727 238.687 26.05V19.572H250.249V65H238.687V58.358C237.211 60.49 235.161 62.2667 232.537 63.688C229.967 65.0547 226.988 65.738 223.599 65.738C219.772 65.738 216.273 64.754 213.103 62.786C209.987 60.818 207.499 58.0573 205.641 54.504C203.837 50.896 202.935 46.7687 202.935 42.122ZM238.687 42.286C238.687 39.498 238.14 37.12 237.047 35.152C235.953 33.1293 234.477 31.5987 232.619 30.56C230.76 29.4667 228.765 28.92 226.633 28.92C224.501 28.92 222.533 29.4393 220.729 30.478C218.925 31.5167 217.449 33.0473 216.301 35.07C215.207 37.038 214.661 39.3887 214.661 42.122C214.661 44.8553 215.207 47.2607 216.301 49.338C217.449 51.3607 218.925 52.9187 220.729 54.012C222.587 55.1053 224.555 55.652 226.633 55.652C228.765 55.652 230.76 55.1327 232.619 54.094C234.477 53.0007 235.953 51.47 237.047 49.502C238.14 47.4793 238.687 45.074 238.687 42.286ZM278.048 42.122C278.048 37.53 278.95 33.4573 280.754 29.904C282.612 26.3507 285.1 23.6173 288.216 21.704C291.386 19.7907 294.912 18.834 298.794 18.834C302.183 18.834 305.135 19.5173 307.65 20.884C310.219 22.2507 312.269 23.9727 313.8 26.05V19.572H325.362V65H313.8V58.358C312.324 60.49 310.274 62.2667 307.65 63.688C305.08 65.0547 302.101 65.738 298.712 65.738C294.885 65.738 291.386 64.754 288.216 62.786C285.1 60.818 282.612 58.0573 280.754 54.504C278.95 50.896 278.048 46.7687 278.048 42.122ZM313.8 42.286C313.8 39.498 313.253 37.12 312.16 35.152C311.066 33.1293 309.59 31.5987 307.732 30.56C305.873 29.4667 303.878 28.92 301.746 28.92C299.614 28.92 297.646 29.4393 295.842 30.478C294.038 31.5167 292.562 33.0473 291.414 35.07C290.32 37.038 289.774 39.3887 289.774 42.122C289.774 44.8553 290.32 47.2607 291.414 49.338C292.562 51.3607 294.038 52.9187 295.842 54.012C297.7 55.1053 299.668 55.652 301.746 55.652C303.878 55.652 305.873 55.1327 307.732 54.094C309.59 53.0007 311.066 51.47 312.16 49.502C313.253 47.4793 313.8 45.074 313.8 42.286ZM354.368 18.834C357.757 18.834 360.737 19.5173 363.306 20.884C365.875 22.196 367.898 23.918 369.374 26.05V19.572H380.936V65.328C380.936 69.5373 380.089 73.282 378.394 76.562C376.699 79.8967 374.157 82.5207 370.768 84.434C367.379 86.402 363.279 87.386 358.468 87.386C352.017 87.386 346.715 85.8827 342.56 82.876C338.46 79.8693 336.137 75.7693 335.59 70.576H346.988C347.589 72.6533 348.874 74.2933 350.842 75.496C352.865 76.7533 355.297 77.382 358.14 77.382C361.475 77.382 364.181 76.3707 366.258 74.348C368.335 72.38 369.374 69.3733 369.374 65.328V58.276C367.898 60.408 365.848 62.1847 363.224 63.606C360.655 65.0273 357.703 65.738 354.368 65.738C350.541 65.738 347.043 64.754 343.872 62.786C340.701 60.818 338.187 58.0573 336.328 54.504C334.524 50.896 333.622 46.7687 333.622 42.122C333.622 37.53 334.524 33.4573 336.328 29.904C338.187 26.3507 340.674 23.6173 343.79 21.704C346.961 19.7907 350.487 18.834 354.368 18.834ZM369.374 42.286C369.374 39.498 368.827 37.12 367.734 35.152C366.641 33.1293 365.165 31.5987 363.306 30.56C361.447 29.4667 359.452 28.92 357.32 28.92C355.188 28.92 353.22 29.4393 351.416 30.478C349.612 31.5167 348.136 33.0473 346.988 35.07C345.895 37.038 345.348 39.3887 345.348 42.122C345.348 44.8553 345.895 47.2607 346.988 49.338C348.136 51.3607 349.612 52.9187 351.416 54.012C353.275 55.1053 355.243 55.652 357.32 55.652C359.452 55.652 361.447 55.1327 363.306 54.094C365.165 53.0007 366.641 51.47 367.734 49.502C368.827 47.4793 369.374 45.074 369.374 42.286ZM434.378 41.302C434.378 42.942 434.269 44.418 434.05 45.73H400.84C401.114 49.01 402.262 51.5793 404.284 53.438C406.307 55.2967 408.794 56.226 411.746 56.226C416.01 56.226 419.044 54.3947 420.848 50.732H433.23C431.918 55.1053 429.404 58.7133 425.686 61.556C421.969 64.344 417.404 65.738 411.992 65.738C407.619 65.738 403.683 64.7813 400.184 62.868C396.74 60.9 394.034 58.1393 392.066 54.586C390.153 51.0327 389.196 46.9327 389.196 42.286C389.196 37.5847 390.153 33.4573 392.066 29.904C393.98 26.3507 396.658 23.6173 400.102 21.704C403.546 19.7907 407.51 18.834 411.992 18.834C416.311 18.834 420.165 19.7633 423.554 21.622C426.998 23.4807 429.65 26.132 431.508 29.576C433.422 32.9653 434.378 36.874 434.378 41.302ZM422.488 38.022C422.434 35.07 421.368 32.7193 419.29 30.97C417.213 29.166 414.671 28.264 411.664 28.264C408.822 28.264 406.416 29.1387 404.448 30.888C402.535 32.5827 401.36 34.9607 400.922 38.022H422.488ZM467.932 18.916C473.344 18.916 477.717 20.638 481.052 24.082C484.386 27.4713 486.054 32.2273 486.054 38.35V65H474.574V39.908C474.574 36.3 473.672 33.5393 471.868 31.626C470.064 29.658 467.604 28.674 464.488 28.674C461.317 28.674 458.802 29.658 456.944 31.626C455.14 33.5393 454.238 36.3 454.238 39.908V65H442.758V19.572H454.238V25.23C455.768 23.262 457.709 21.7313 460.06 20.638C462.465 19.49 465.089 18.916 467.932 18.916ZM494.018 42.122C494.018 37.53 494.92 33.4573 496.724 29.904C498.583 26.3507 501.098 23.6173 504.269 21.704C507.439 19.7907 510.965 18.834 514.847 18.834C517.799 18.834 520.614 19.49 523.293 20.802C525.971 22.0593 528.103 23.754 529.689 25.886V4.32H541.333V65H529.689V58.276C528.267 60.5173 526.272 62.3213 523.703 63.688C521.133 65.0547 518.154 65.738 514.765 65.738C510.938 65.738 507.439 64.754 504.269 62.786C501.098 60.818 498.583 58.0573 496.724 54.504C494.92 50.896 494.018 46.7687 494.018 42.122ZM529.771 42.286C529.771 39.498 529.224 37.12 528.131 35.152C527.037 33.1293 525.561 31.5987 523.703 30.56C521.844 29.4667 519.849 28.92 517.717 28.92C515.585 28.92 513.617 29.4393 511.812 30.478C510.009 31.5167 508.533 33.0473 507.385 35.07C506.291 37.038 505.745 39.3887 505.745 42.122C505.745 44.8553 506.291 47.2607 507.385 49.338C508.533 51.3607 510.009 52.9187 511.812 54.012C513.671 55.1053 515.639 55.652 517.717 55.652C519.849 55.652 521.844 55.1327 523.703 54.094C525.561 53.0007 527.037 51.47 528.131 49.502C529.224 47.4793 529.771 45.074 529.771 42.286ZM549.593 42.122C549.593 37.53 550.495 33.4573 552.299 29.904C554.157 26.3507 556.645 23.6173 559.761 21.704C562.931 19.7907 566.457 18.834 570.339 18.834C573.728 18.834 576.68 19.5173 579.195 20.884C581.764 22.2507 583.814 23.9727 585.345 26.05V19.572H596.907V65H585.345V58.358C583.869 60.49 581.819 62.2667 579.195 63.688C576.625 65.0547 573.646 65.738 570.257 65.738C566.43 65.738 562.931 64.754 559.761 62.786C556.645 60.818 554.157 58.0573 552.299 54.504C550.495 50.896 549.593 46.7687 549.593 42.122ZM585.345 42.286C585.345 39.498 584.798 37.12 583.705 35.152C582.611 33.1293 581.135 31.5987 579.277 30.56C577.418 29.4667 575.423 28.92 573.291 28.92C571.159 28.92 569.191 29.4393 567.387 30.478C565.583 31.5167 564.107 33.0473 562.959 35.07C561.865 37.038 561.319 39.3887 561.319 42.122C561.319 44.8553 561.865 47.2607 562.959 49.338C564.107 51.3607 565.583 52.9187 567.387 54.012C569.245 55.1053 571.213 55.652 573.291 55.652C575.423 55.652 577.418 55.1327 579.277 54.094C581.135 53.0007 582.611 51.47 583.705 49.502C584.798 47.4793 585.345 45.074 585.345 42.286ZM208.73 141.916C214.306 141.916 218.789 143.638 222.178 147.082C225.622 150.471 227.344 155.227 227.344 161.35V188H215.864V162.908C215.864 159.355 214.962 156.649 213.158 154.79C211.354 152.877 208.894 151.92 205.778 151.92C202.662 151.92 200.175 152.877 198.316 154.79C196.512 156.649 195.61 159.355 195.61 162.908V188H184.13V162.908C184.13 159.355 183.228 156.649 181.424 154.79C179.62 152.877 177.16 151.92 174.044 151.92C170.874 151.92 168.359 152.877 166.5 154.79C164.696 156.649 163.794 159.355 163.794 162.908V188H152.314V142.572H163.794V148.066C165.27 146.153 167.156 144.649 169.452 143.556C171.803 142.463 174.372 141.916 177.16 141.916C180.714 141.916 183.884 142.681 186.672 144.212C189.46 145.688 191.62 147.82 193.15 150.608C194.626 147.984 196.758 145.879 199.546 144.294C202.389 142.709 205.45 141.916 208.73 141.916ZM244.06 137.16C242.037 137.16 240.343 136.531 238.976 135.274C237.664 133.962 237.008 132.349 237.008 130.436C237.008 128.523 237.664 126.937 238.976 125.68C240.343 124.368 242.037 123.712 244.06 123.712C246.083 123.712 247.75 124.368 249.062 125.68C250.429 126.937 251.112 128.523 251.112 130.436C251.112 132.349 250.429 133.962 249.062 135.274C247.75 136.531 246.083 137.16 244.06 137.16ZM249.718 142.572V188H238.238V142.572H249.718ZM286.234 141.916C291.646 141.916 296.02 143.638 299.354 147.082C302.689 150.471 304.356 155.227 304.356 161.35V188H292.876V162.908C292.876 159.3 291.974 156.539 290.17 154.626C288.366 152.658 285.906 151.674 282.79 151.674C279.62 151.674 277.105 152.658 275.246 154.626C273.442 156.539 272.54 159.3 272.54 162.908V188H261.06V142.572H272.54V148.23C274.071 146.262 276.012 144.731 278.362 143.638C280.768 142.49 283.392 141.916 286.234 141.916ZM340.857 141.916C344.301 141.916 347.363 142.681 350.041 144.212C352.72 145.688 354.797 147.902 356.273 150.854C357.804 153.751 358.569 157.25 358.569 161.35V188H347.089V162.908C347.089 159.3 346.187 156.539 344.383 154.626C342.579 152.658 340.119 151.674 337.003 151.674C333.833 151.674 331.318 152.658 329.459 154.626C327.655 156.539 326.753 159.3 326.753 162.908V188H315.273V127.32H326.753V148.23C328.229 146.262 330.197 144.731 332.657 143.638C335.117 142.49 337.851 141.916 340.857 141.916ZM366.534 165.122C366.534 160.53 367.436 156.457 369.24 152.904C371.099 149.351 373.586 146.617 376.702 144.704C379.873 142.791 383.399 141.834 387.28 141.834C390.669 141.834 393.621 142.517 396.136 143.884C398.705 145.251 400.755 146.973 402.286 149.05V142.572H413.848V188H402.286V181.358C400.81 183.49 398.76 185.267 396.136 186.688C393.567 188.055 390.587 188.738 387.198 188.738C383.371 188.738 379.873 187.754 376.702 185.786C373.586 183.818 371.099 181.057 369.24 177.504C367.436 173.896 366.534 169.769 366.534 165.122ZM402.286 165.286C402.286 162.498 401.739 160.12 400.646 158.152C399.553 156.129 398.077 154.599 396.218 153.56C394.359 152.467 392.364 151.92 390.232 151.92C388.1 151.92 386.132 152.439 384.328 153.478C382.524 154.517 381.048 156.047 379.9 158.07C378.807 160.038 378.26 162.389 378.26 165.122C378.26 167.855 378.807 170.261 379.9 172.338C381.048 174.361 382.524 175.919 384.328 177.012C386.187 178.105 388.155 178.652 390.232 178.652C392.364 178.652 394.359 178.133 396.218 177.094C398.077 176.001 399.553 174.47 400.646 172.502C401.739 170.479 402.286 168.074 402.286 165.286ZM463.541 177.422L475.021 142.572H487.239L470.429 188H456.489L439.761 142.572H452.061L463.541 177.422ZM499.509 137.16C497.487 137.16 495.792 136.531 494.425 135.274C493.113 133.962 492.457 132.349 492.457 130.436C492.457 128.523 493.113 126.937 494.425 125.68C495.792 124.368 497.487 123.712 499.509 123.712C501.532 123.712 503.199 124.368 504.511 125.68C505.878 126.937 506.561 128.523 506.561 130.436C506.561 132.349 505.878 133.962 504.511 135.274C503.199 136.531 501.532 137.16 499.509 137.16ZM505.167 142.572V188H493.687V142.572H505.167ZM513.558 165.122C513.558 160.53 514.46 156.457 516.264 152.904C518.122 149.351 520.637 146.617 523.808 144.704C526.978 142.791 530.504 141.834 534.386 141.834C537.338 141.834 540.153 142.49 542.832 143.802C545.51 145.059 547.642 146.754 549.228 148.886V127.32H560.872V188H549.228V181.276C547.806 183.517 545.811 185.321 543.242 186.688C540.672 188.055 537.693 188.738 534.304 188.738C530.477 188.738 526.978 187.754 523.808 185.786C520.637 183.818 518.122 181.057 516.264 177.504C514.46 173.896 513.558 169.769 513.558 165.122ZM549.31 165.286C549.31 162.498 548.763 160.12 547.67 158.152C546.576 156.129 545.1 154.599 543.242 153.56C541.383 152.467 539.388 151.92 537.256 151.92C535.124 151.92 533.156 152.439 531.352 153.478C529.548 154.517 528.072 156.047 526.924 158.07C525.83 160.038 525.284 162.389 525.284 165.122C525.284 167.855 525.83 170.261 526.924 172.338C528.072 174.361 529.548 175.919 531.352 177.012C533.21 178.105 535.178 178.652 537.256 178.652C539.388 178.652 541.383 178.133 543.242 177.094C545.1 176.001 546.576 174.47 547.67 172.502C548.763 170.479 549.31 168.074 549.31 165.286ZM569.132 165.122C569.132 160.53 570.034 156.457 571.838 152.904C573.696 149.351 576.184 146.617 579.3 144.704C582.47 142.791 585.996 141.834 589.878 141.834C593.267 141.834 596.219 142.517 598.734 143.884C601.303 145.251 603.353 146.973 604.884 149.05V142.572H616.446V188H604.884V181.358C603.408 183.49 601.358 185.267 598.734 186.688C596.164 188.055 593.185 188.738 589.796 188.738C585.969 188.738 582.47 187.754 579.3 185.786C576.184 183.818 573.696 181.057 571.838 177.504C570.034 173.896 569.132 169.769 569.132 165.122ZM604.884 165.286C604.884 162.498 604.337 160.12 603.244 158.152C602.15 156.129 600.674 154.599 598.816 153.56C596.957 152.467 594.962 151.92 592.83 151.92C590.698 151.92 588.73 152.439 586.926 153.478C585.122 154.517 583.646 156.047 582.498 158.07C581.404 160.038 580.858 162.389 580.858 165.122C580.858 167.855 581.404 170.261 582.498 172.338C583.646 174.361 585.122 175.919 586.926 177.012C588.784 178.105 590.752 178.652 592.83 178.652C594.962 178.652 596.957 178.133 598.816 177.094C600.674 176.001 602.15 174.47 603.244 172.502C604.337 170.479 604.884 168.074 604.884 165.286Z" fill="black"/>
</svg>
